<svg width="112" height="112" fill="none" xmlns="http://www.w3.org/2000/svg"><path d="m105.559 56.989-.88-.609a15.655 15.655 0 0 0-5.991-3.704 14.756 14.756 0 0 0-6.878-.61c-4.014.36-7.883 1.796-11.254 4.182v-.212a50.11 50.11 0 0 1 .343-4.975c.147-1.72.318-3.44.318-5.08.052-1.571-.19-3.137-.71-4.605a.862.862 0 0 0-.319-.421.761.761 0 0 0-.488-.135c-1.836.187-3.609.82-5.186 1.853l-.392.9a38.293 38.293 0 0 1-.758 7.488c-.054.216-.12.428-.196.635a99.231 99.231 0 0 0 0 19.053c0 .529 1.052 1.35 1.786 1.667 1.68.044 3.35-.308 4.893-1.032h.563a.79.79 0 0 0 .317-.12.86.86 0 0 0 .248-.244.971.971 0 0 0 .144-.695v-1.56c.67-2.717 2.001-5.189 3.856-7.158 1.855-1.97 4.165-3.363 6.688-4.036a6.81 6.81 0 0 1 3.8.201 7.308 7.308 0 0 1 3.197 2.233c.56 2.631.148 5.394-1.15 7.7-1.827 3.237-4.665 5.658-8 6.828a28.482 28.482 0 0 1-12.232 1.852c-.22-.132-4.526-3.281-4.526-3.281a64.139 64.139 0 0 0-12.868-8.283 16.86 16.86 0 0 1-2.936-2.249l-.416-.397c-2.446-2.17-7.217-5.557-11.01-8.282l-2.03-1.509v-.45c0-.132 2.447-1.667 2.447-1.667a25.477 25.477 0 0 0 5.186-3.678l.465-.291 8.27-5.08c7.926-4.71 16.929-10.056 21.65-15.349l.22-.82v-.714c.281-.974.281-2.017 0-2.99a.898.898 0 0 0-.22-.45.79.79 0 0 0-.415-.239c-3.695-.396-8.44 1.985-12.771 6.378-.8.797-1.698 1.474-2.667 2.01l-.66.371c-4.893 2.938-15.535 10.162-21.162 14.078a222.55 222.55 0 0 1 2.862-23.657l-.147-.926-.587-1.164-.44-.847a3.326 3.326 0 0 0-2.716-.185l-1.125.45-1.492.582a.856.856 0 0 0-.386.204.955.955 0 0 0-.25.378 106.086 106.086 0 0 0-5.456 27.838 130.799 130.799 0 0 0-12.77-7.648h-.294a8.585 8.585 0 0 1-2.985-1.482l-2.03-1.429-3.132-2.17-.832-.211c-1.824.624-3.446 1.799-4.673 3.387a1.18 1.18 0 0 0-.147.556c.023.27.073.535.147.794l.147.688.147.423a44.348 44.348 0 0 0 9.076 6.377l4.282 2.461 6.58 3.864 1.126.979.758.476h.147c-1.761 1.244-11.939 8.627-11.939 8.627l-6.41 4.763a35.98 35.98 0 0 1-3.62 1.879c-1.19.45-2.195 1.34-2.838 2.513l-.171.397.17.265.49.397.636.45.71.503.636.132a15.606 15.606 0 0 0 5.798-2.09c2.814-1.35 10.447-6.325 13.725-8.442l1.394-.926a3.045 3.045 0 0 0 1.762-.926 18.9 18.9 0 0 1 2.935-1.932s.539-.318 1.003-.582v.423c-.057 8.28.55 16.549 1.81 24.716v.264a28.308 28.308 0 0 1 1.689 5.663l1.223 4.499.367.423a7.635 7.635 0 0 0 4.306 1.244h.367l.22-.556c.121-.68.178-1.371.171-2.064v-4.446c-.464-7.541-.905-18.523-.905-25.668v-.582l6.361 4.34C58.342 72.68 71.553 82.048 79.7 84.509c.202.065.417.073.623.022.206-.051.396-.16.551-.313l1.248-.847h.22c.275-.24.494-.548.639-.898.144-.35.21-.73.193-1.113 6.777-.344 16.245-3.175 21.309-10.055 1.809-2.494 2.806-5.564 2.838-8.733.108-1.932-.489-3.832-1.664-5.292" fill="#FCAF17"/></svg>