<svg width="48" height="48" viewBox="0 0 48 48" fill="none" xmlns="http://www.w3.org/2000/svg">
<rect width="48" height="48" fill="white"/>
<path d="M45.2394 24.4231L44.8623 24.1621C44.1381 23.4448 43.26 22.9019 42.2947 22.5747C41.3466 22.2557 40.3364 22.1661 39.347 22.3133C37.6267 22.4676 35.9686 23.083 34.5239 24.1056V24.0147C34.5374 23.302 34.5865 22.5904 34.6709 21.8826C34.7339 21.1454 34.8071 20.4083 34.8071 19.7054C34.8294 19.0321 34.7257 18.361 34.5029 17.7318C34.4773 17.6589 34.4295 17.5958 34.3661 17.5514C34.3051 17.5088 34.2313 17.4884 34.157 17.4936C33.3701 17.5737 32.6103 17.845 31.9344 18.2877L31.7664 18.6734C31.7638 19.7512 31.655 20.8261 31.4416 21.8826C31.4184 21.9751 31.3901 22.066 31.3576 22.1547C31.0957 24.8703 31.0957 27.6047 31.3576 30.3203C31.3576 30.547 31.8084 30.8988 32.123 31.0347C32.843 31.0536 33.5587 30.9027 34.22 30.5924H34.4613C34.5098 30.5853 34.5561 30.5678 34.5971 30.541C34.6393 30.5137 34.6755 30.4781 34.7034 30.4364C34.7608 30.3485 34.7829 30.2421 34.7651 30.1386V29.47C35.0523 28.3056 35.6227 27.2461 36.4177 26.4023C37.2127 25.558 38.2027 24.961 39.284 24.6726C39.824 24.5459 40.3889 24.5758 40.9126 24.7587C41.4475 24.9477 41.9211 25.2785 42.2827 25.7157C42.5227 26.8433 42.3461 28.0274 41.7899 29.0157C41.0069 30.403 39.7906 31.4406 38.3613 31.942C36.6931 32.5874 34.9035 32.8584 33.119 32.7357C33.0247 32.6791 31.1793 31.3296 31.1793 31.3296C29.4893 29.9304 27.6378 28.7387 25.6644 27.7797C25.2109 27.5055 24.789 27.1823 24.4061 26.8158L24.2279 26.6457C23.1796 25.7157 21.1349 24.2641 19.5093 23.0963L18.6393 22.4496V22.2567C18.6393 22.2001 19.688 21.5423 19.688 21.5423C20.4918 21.1117 21.2384 20.5822 21.9106 19.966L22.1099 19.8413L25.6541 17.6641C29.051 15.6456 32.9094 13.3544 34.9327 11.086L35.027 10.7346V10.4286C35.1474 10.0111 35.1474 9.56413 35.027 9.14713C35.0145 9.0752 34.9818 9.00831 34.9327 8.95427C34.8855 8.90255 34.8233 8.86676 34.7549 8.85184C33.1713 8.68213 31.1377 9.70256 29.2816 11.5853C28.9387 11.9268 28.5539 12.217 28.1386 12.4467L27.8557 12.6057C25.7587 13.8648 21.1979 16.9608 18.7863 18.6391C19.0138 15.2401 19.4232 11.8557 20.0129 8.50042L19.9499 8.10356L19.6983 7.6047L19.5097 7.2417C19.3323 7.14713 19.1368 7.09118 18.9362 7.07751C18.7356 7.06385 18.5343 7.09278 18.3457 7.16242L17.8636 7.35527L17.2241 7.6047C17.1624 7.61906 17.1054 7.64918 17.0587 7.69213C17.0105 7.73675 16.9738 7.79231 16.9516 7.85413C15.6415 11.7084 14.8551 15.7211 14.6133 19.7847C12.8527 18.5891 11.0255 17.4948 9.14043 16.507H9.01443C8.55061 16.3809 8.11599 16.1651 7.73514 15.8718L6.86514 15.2594L5.52286 14.3294L5.16629 14.239C4.38457 14.5064 3.68943 15.01 3.16357 15.6906C3.12324 15.7636 3.1016 15.8454 3.10057 15.9288C3.11043 16.0446 3.13186 16.1581 3.16357 16.2691L3.22657 16.564L3.28957 16.7453C4.46665 17.8155 5.77345 18.7337 7.17929 19.4783L9.01443 20.533L11.8344 22.189L12.317 22.6086L12.6419 22.8126H12.7049C11.9501 23.3457 7.58814 26.5098 7.58814 26.5098L4.841 28.5511C4.3395 28.8487 3.82152 29.1175 3.28957 29.3564C2.77957 29.5493 2.34886 29.9307 2.07329 30.4334L2 30.6036L2.07286 30.7171L2.28286 30.8873L2.55543 31.0801L2.85971 31.2957L3.13229 31.3523C4.01188 31.2218 4.85664 30.9173 5.61714 30.4566C6.82314 29.878 10.0944 27.7458 11.4993 26.8386L12.0967 26.4417C12.3858 26.3977 12.6517 26.258 12.8519 26.0448C13.2445 25.7304 13.6656 25.4532 14.1097 25.2168C14.1097 25.2168 14.3407 25.0806 14.5396 24.9674V25.1487C14.5151 28.6973 14.7753 32.2411 15.3153 35.7413V35.8544C15.6406 36.6359 15.8832 37.4494 16.0391 38.2814L16.5633 40.2096L16.7206 40.3908C17.2685 40.7492 17.9114 40.9349 18.566 40.924H18.7233L18.8176 40.6857C18.8694 40.3943 18.8939 40.0981 18.8909 39.8011V37.8957C18.692 34.6638 18.503 29.9573 18.503 26.8951V26.6457L21.2291 28.5057C25.0036 31.1478 30.6654 35.1627 34.157 36.2174C34.2436 36.2453 34.3357 36.2487 34.424 36.2268C34.5123 36.205 34.5937 36.1583 34.6601 36.0927L35.195 35.7297H35.2893C35.4071 35.6268 35.501 35.4948 35.5631 35.3448C35.6249 35.1948 35.6531 35.032 35.6459 34.8678C38.5503 34.7204 42.608 33.5071 44.7783 30.5586C45.5536 29.4897 45.9809 28.174 45.9946 26.8158C46.0409 25.9878 45.785 25.1736 45.2814 24.5478" fill="#8E8E8E"/>
</svg>
