<svg width="48" height="48" viewBox="0 0 48 48" fill="none" xmlns="http://www.w3.org/2000/svg">
<mask id="mask0_117_3350" style="mask-type:luminance" maskUnits="userSpaceOnUse" x="8" y="4" width="32" height="40">
<path d="M8 4.23828H40.0001V43.7594H8V4.23828Z" fill="white"/>
</mask>
<g mask="url(#mask0_117_3350)">
<path d="M31.7928 4.23828L23.998 8.15842L16.2031 4.23828L23.998 19.0531L31.7928 4.23828Z" fill="#8E8E8E"/>
<path d="M34.5743 15.6379L40.1354 13.3129V5.47266L30.4716 9.62123L25.093 19.7407C27.1623 19.9793 29.062 21.0003 30.4028 22.5944C31.7436 24.1885 32.4239 26.2351 32.3044 28.3146C32.1849 30.3942 31.2746 32.3494 29.76 33.7794C28.2454 35.2094 26.2413 36.0061 24.1583 36.0061C22.0753 36.0061 20.0711 35.2094 18.5565 33.7794C17.042 32.3494 16.1317 30.3942 16.0121 28.3146C15.8926 26.2351 16.573 24.1885 17.9138 22.5944C19.2546 21.0003 21.1543 19.9793 23.2236 19.7407L17.845 9.62037L8.22656 5.47266V13.3129L13.879 15.6379C11.4277 17.7807 9.68856 20.6204 8.8937 23.7777C8.09883 26.9349 8.28612 30.2596 9.43055 33.3076C10.575 36.3556 12.6221 38.982 15.2985 40.8359C17.9749 42.6899 21.1532 43.6831 24.409 43.6831C27.6648 43.6831 30.8431 42.6899 33.5195 40.8359C36.1959 38.982 38.243 36.3556 39.3874 33.3076C40.5319 30.2596 40.7191 26.9349 39.9243 23.7777C39.1294 20.6204 37.3902 17.7807 34.939 15.6379H34.5743Z" fill="#8E8E8E"/>
</g>
</svg>
