<svg width="48" height="48" viewBox="0 0 48 48" fill="none" xmlns="http://www.w3.org/2000/svg">
<mask id="mask0_484_3562" style="mask-type:luminance" maskUnits="userSpaceOnUse" x="2" y="2" width="44" height="44">
<path d="M2 2.23438H46.0001V45.7648H2V2.23438Z" fill="white"/>
</mask>
<g mask="url(#mask0_484_3562)">
<path d="M45.6818 23.9952C45.684 28.3019 44.4088 32.5125 42.0174 36.0942C39.626 39.6759 36.2259 42.4678 32.2473 44.1166C28.2688 45.7652 23.8907 46.197 19.6668 45.3573C15.4429 44.5177 11.5628 42.4443 8.51734 39.3993C5.986 36.8681 4.11791 33.7517 3.07851 30.3261C2.03911 26.9005 1.86047 23.2715 2.55841 19.7604C3.25636 16.2493 4.80935 12.9645 7.07985 10.1969C9.35035 7.42923 12.2683 5.2642 15.5753 3.89351C18.8823 2.52281 22.4762 1.98874 26.0389 2.3386C29.6015 2.68846 33.0229 3.91145 36.0001 5.89926C38.9773 7.88708 41.4183 10.5784 43.1071 13.7348C44.7958 16.8912 45.6802 20.4154 45.6818 23.9952Z" fill="#0083CA"/>
<path d="M23.9192 44.7251C29.4176 44.7251 34.6908 42.5409 38.5788 38.653C42.4667 34.765 44.6509 29.4918 44.6509 23.9934C44.6509 18.495 42.4667 13.2218 38.5788 9.3339C34.6908 5.44595 29.4176 3.26172 23.9192 3.26172C18.4208 3.26172 13.1476 5.44595 9.25968 9.3339C5.37173 13.2218 3.1875 18.495 3.1875 23.9934C3.1875 29.4918 5.37173 34.765 9.25968 38.653C13.1476 42.5409 18.4208 44.7251 23.9192 44.7251Z" fill="#0083CA"/>
<path d="M23.9906 26.9468C32.6838 26.9468 40.1387 29.4507 43.3321 33C44.4364 30.3888 45.0043 27.5688 45 24.7188C45 21.8666 44.4568 19.0424 43.4014 16.4073C42.3461 13.7723 40.7993 11.378 38.8492 9.36128C36.8992 7.3445 34.5842 5.74471 32.0363 4.65324C29.4885 3.56177 26.7578 3 24 3C21.2422 3 18.5115 3.56177 15.9637 4.65324C13.4158 5.74471 11.1008 7.3445 9.15077 9.36128C7.20075 11.378 5.6539 13.7723 4.59855 16.4073C3.5432 19.0424 3.00002 21.8666 3.00002 24.7188C2.99589 27.5678 3.56035 30.387 4.65808 33C7.84205 29.4507 15.2871 26.9468 23.9906 26.9468Z" fill="#0083CA"/>
<path d="M24.0193 26.4638C32.7055 26.4638 40.1513 28.7509 43.3393 32C44.4376 29.6134 45.0031 27.0361 45 24.4311C45 13.7124 35.5977 5 24 5C12.4023 5 3.00002 13.7128 3.00002 24.4311C2.99607 27.0362 3.56146 29.6136 4.66034 32C7.88676 28.7509 15.3039 26.4638 24.0193 26.4638Z" fill="#0085CB"/>
<path d="M23.5 26.2656C32.396 26.2656 40.0271 28.6449 43.2931 32C44.4203 29.5304 45.0017 26.8605 45 24.1613C45 13.0521 35.3581 4 23.5 4C11.6415 4.00041 2.00002 13.0623 2.00002 24.1613C1.99585 26.8607 2.57716 29.531 3.70648 32C6.96282 28.6449 14.5939 26.2656 23.5 26.2656Z" fill="#0086CC"/>
<path d="M23.4802 26.234C32.3812 26.234 40.0236 28.6016 43.2889 31.9615C44.4137 29.5096 44.9966 26.856 45 24.172C45 13.0788 35.3616 4 23.4903 4C11.6191 4 2.00005 13.0788 2.00005 24.172C1.99354 26.8684 2.57317 29.5358 3.70108 32C6.94694 28.6016 14.5792 26.234 23.4802 26.234Z" fill="#0088CC"/>
<path d="M23.4949 26.281C32.3693 26.281 40.0305 28.6455 43.2942 32C44.423 29.542 45.0044 26.8786 45 24.1855C45 13.1027 35.3665 4 23.4953 4C11.6234 4 2.00002 13.0933 2.00002 24.1855C1.99612 26.8775 2.574 29.5402 3.69602 32C6.95979 28.6455 14.5914 26.2806 23.4953 26.2806L23.4949 26.281Z" fill="#0089CD"/>
<path d="M23.9828 26.3693C32.9708 26.3693 40.6799 28.8062 43.9559 32.2613C45.0908 29.7299 45.6761 26.9866 45.6732 24.2123C45.6732 12.7879 35.9365 3.39062 23.9532 3.39062C11.9691 3.39105 2.24219 12.7982 2.24219 24.2123C2.23994 26.9854 2.82186 29.7278 3.95005 32.2609C7.27534 28.8062 14.9952 26.3693 23.9828 26.3693Z" fill="#008BCE"/>
<path d="M23.982 26.397C32.97 26.397 40.6393 28.8034 43.9547 32.2388C45.0886 29.7282 45.6742 27.0047 45.6724 24.2498C45.6724 12.9253 35.9657 3.57812 24.0124 3.57812C12.0583 3.57812 2.35156 12.9253 2.35156 24.2498C2.35048 27.0035 2.93253 29.7263 4.05942 32.2388C7.31485 28.8038 15.0146 26.397 23.982 26.397Z" fill="#008DCF"/>
<path d="M23.9672 26.4168C32.9548 26.4168 40.5846 28.8138 43.87 32.209C44.996 29.7207 45.5782 27.0209 45.5779 24.2898C45.5779 13.0655 35.9008 3.75781 23.9672 3.75781C12.0336 3.75781 2.36719 13.0651 2.36719 24.2902C2.36583 27.0214 2.94797 29.7214 4.07462 32.2094C7.35019 28.8142 15.0298 26.4172 23.9676 26.4172L23.9672 26.4168Z" fill="#008ED0"/>
<path d="M23.9702 26.4389C32.8879 26.4389 40.5473 28.8154 43.813 32.1805C44.9445 29.7188 45.5272 27.0405 45.5209 24.3312C45.5209 13.1969 35.8639 3.94922 23.9702 3.94922C12.0764 3.94922 2.42973 13.2064 2.42973 24.3312C2.42389 27.0394 3.00279 29.717 4.12687 32.1809C7.39259 28.8154 15.0524 26.4389 23.9702 26.4389Z" fill="#0090D0"/>
<path d="M23.9673 26.4686C32.855 26.4686 40.4947 28.8155 43.7604 32.1609C44.8823 29.7176 45.4615 27.0602 45.458 24.3716C45.458 13.3865 35.831 4.12891 23.9673 4.12891C12.1036 4.12891 2.47656 13.3363 2.47656 24.3716C2.47678 27.0597 3.05576 29.7161 4.17413 32.1605C7.43985 28.815 15.0693 26.4686 23.9673 26.4686Z" fill="#0092D1"/>
<path d="M23.9718 26.4885C32.8398 26.4885 40.4495 28.8152 43.7148 32.1306C44.8312 29.7101 45.4103 27.0767 45.4124 24.4112C45.4124 13.426 35.8055 4.30859 23.9718 4.30859C12.1381 4.30859 2.53125 13.4757 2.53125 24.4112C2.53125 27.0769 3.11068 29.7109 4.22839 32.1306C7.48425 28.8152 15.094 26.4885 23.9718 26.4885Z" fill="#0093D2"/>
<path d="M23.9567 26.5064C32.8045 26.5064 40.404 28.8233 43.65 32.0988C44.7668 29.7033 45.3462 27.0924 45.3475 24.4493C45.3475 13.6043 35.7604 4.47656 23.9567 4.47656C12.1525 4.47656 2.58595 13.594 2.58595 24.4493C2.58291 27.0918 3.15899 29.7029 4.27366 32.0988C7.51881 28.8233 15.1088 26.5064 23.9567 26.5064Z" fill="#0095D3"/>
<path d="M23.9616 26.5359C32.7795 26.5359 40.3588 28.8228 43.6048 32.0782C44.7172 29.7028 45.2934 27.1117 45.2925 24.4886C45.2925 13.7435 35.7354 4.67578 23.9616 4.67578C12.1875 4.67578 2.64064 13.7435 2.64064 24.4886C2.63751 27.112 3.21381 29.7038 4.32835 32.0786C7.56407 28.8228 15.1335 26.5359 23.9612 26.5359H23.9616Z" fill="#0097D4"/>
<path d="M23.9588 26.5576C32.7569 26.5576 40.3165 28.8248 43.5419 32.0502C44.6532 29.7026 45.2297 27.1377 45.2296 24.5403C45.2296 13.8848 35.7025 4.86719 23.9588 4.86719C12.2146 4.86719 2.6875 13.8548 2.6875 24.5403C2.6867 27.1376 3.26317 29.7026 4.37521 32.0498C7.6015 28.8248 15.1508 26.5576 23.9588 26.5576Z" fill="#0098D5"/>
<path d="M23.951 26.5774C32.729 26.5774 40.2689 28.8244 43.4947 32.0203C44.5975 29.695 45.1704 27.1539 45.1721 24.5803C45.1721 14.0147 35.6651 5.04688 23.951 5.04688C12.2373 5.04688 2.75 14.0349 2.75 24.5803C2.74939 27.1542 3.32258 29.6958 4.42786 32.0203C7.64343 28.8244 15.173 26.5774 23.951 26.5774Z" fill="#009AD5"/>
<path d="M23.9477 26.5991C32.6962 26.5991 40.2159 28.8363 43.4314 32.0017C44.5331 29.6973 45.1061 27.1759 45.1089 24.6217C45.1089 14.156 35.6319 5.23828 23.9477 5.23828C12.264 5.23828 2.79688 14.156 2.79688 24.6217C2.79732 27.1762 3.37052 29.698 4.4743 32.0017C7.68002 28.8359 15.1894 26.5991 23.9477 26.5991Z" fill="#009CD6"/>
<path d="M23.9519 26.6293C32.6802 26.6293 40.1802 28.8364 43.3855 31.9718C44.4793 29.6898 45.0492 27.1922 45.0535 24.6617C45.0535 14.2958 35.5962 5.41797 23.9519 5.41797C12.3076 5.41797 2.89062 14.2958 2.89062 24.6617C2.89248 27.1936 3.46603 29.6925 4.56848 31.9718C7.72405 28.836 15.2142 26.6293 23.9519 26.6293Z" fill="#009ED7"/>
<path d="M23.9519 26.6487C32.6502 26.6487 40.1301 28.8357 43.3255 31.9415C44.4235 29.686 44.9939 27.2102 44.9935 24.7017C44.9935 14.4254 35.5662 5.59766 23.9519 5.59766C12.3376 5.59766 2.89063 14.4254 2.89063 24.7017C2.88787 27.2105 3.45839 29.6868 4.55864 31.9415C7.76435 28.8357 15.2344 26.6487 23.9519 26.6487Z" fill="#00A0D8"/>
<path d="M23.9433 26.6671C32.6219 26.6671 40.0915 28.8339 43.277 31.9201C44.367 29.6833 44.9338 27.2279 44.9348 24.7398C44.9348 14.5638 35.5375 5.76562 23.9635 5.76562C12.389 5.76562 2.99219 14.5436 2.99219 24.7398C2.99212 27.2281 3.55904 29.6836 4.6499 31.9201C7.80547 28.8343 15.2553 26.6671 23.9433 26.6671Z" fill="#00A1D9"/>
<path d="M23.9408 26.697C32.5993 26.697 40.0388 28.8441 43.2145 31.89C44.3042 29.6779 44.8713 27.2451 44.8723 24.7791C44.8723 14.703 35.4951 5.96484 23.901 5.96484C12.3068 5.96484 2.92969 14.7034 2.92969 24.7791C2.93436 27.2444 3.50131 29.676 4.5874 31.8891C7.88312 28.8437 15.2828 26.697 23.9408 26.697Z" fill="#00A3DA"/>
<path d="M23.9417 26.7185C32.5702 26.7185 39.99 28.8459 43.1657 31.8613C44.2439 29.6882 44.811 27.2972 44.8235 24.8713C44.8235 14.8847 35.466 6.20703 23.9417 6.20703C12.4175 6.20703 3.07031 14.8847 3.07031 24.8713C3.07926 27.2965 3.64293 29.6875 4.71817 31.8613C7.8836 28.8459 15.3039 26.7185 23.9417 26.7185Z" fill="#00A5DB"/>
<path d="M23.9389 26.7362C32.5373 26.7362 39.9173 28.8435 43.1029 31.8392C44.1921 29.6701 44.7598 27.2765 44.7606 24.8492C44.7606 14.9621 35.4332 6.32422 23.9389 6.32422C12.4446 6.32422 3.11719 14.9621 3.11719 24.8488C3.11711 27.2752 3.68125 29.6683 4.76504 31.8392C7.88076 28.8435 15.3203 26.7362 23.9389 26.7362Z" fill="#00A7DC"/>
<path d="M23.9311 26.7657C32.5197 26.7657 39.9091 28.843 43.0548 31.8087C44.1344 29.6685 44.6987 27.3054 44.7027 24.9083C44.7027 15.1116 35.3954 6.52344 23.9311 6.52344C12.4668 6.52344 3.17969 15.112 3.17969 24.9083C3.17997 27.3046 3.74061 29.6677 4.81683 31.8087C7.96254 28.843 15.3425 26.7657 23.9311 26.7657Z" fill="#00A9DD"/>
<path d="M23.9283 26.786C32.4868 26.786 39.8566 28.853 42.9924 31.7788C44.0717 29.6635 44.6362 27.3231 44.6399 24.9483C44.6399 15.2416 35.3626 6.70312 23.9283 6.70312C12.494 6.70312 3.22656 15.2416 3.22656 24.9483C3.23049 27.3219 3.79139 29.6615 4.86413 31.7788C7.99999 28.853 15.3598 26.786 23.9283 26.786Z" fill="#00ABDE"/>
<path d="M23.9262 26.8065C32.4647 26.8065 39.8048 28.8537 42.9004 31.7997C43.9708 29.7028 44.5318 27.3831 44.5379 25.0287C44.5379 15.4219 35.2907 6.93359 23.8864 6.93359C12.4821 6.93359 3.23438 15.4219 3.23438 25.0287C3.24992 27.3706 3.81431 29.6761 4.88223 31.7603C8.04766 28.8542 15.3779 26.8065 23.9262 26.8065Z" fill="#00ADDE"/>
<path d="M23.9238 26.8277C32.4421 26.8277 39.7621 28.8248 42.898 31.7305C43.9723 29.6602 44.5339 27.3623 44.5356 25.0298C44.5356 15.5228 35.3084 7.05469 23.9337 7.05469C12.5594 7.05469 3.35156 15.5031 3.35156 25.0298C3.35351 27.3613 3.91152 29.6588 4.97928 31.7314C8.09499 28.8553 15.4051 26.8277 23.9238 26.8277Z" fill="#00AFDF"/>
<path d="M23.9226 26.8572C32.4109 26.8572 39.7211 28.8543 42.8368 31.7005C43.9032 29.6527 44.4614 27.3784 44.4645 25.0696C44.4645 15.6522 35.2673 7.25391 23.9226 7.25391C12.5779 7.25391 3.39062 15.6522 3.39062 25.0696C3.39263 27.3786 3.95096 29.653 5.01834 31.7005C8.13405 28.8543 15.4241 26.8572 23.9226 26.8572Z" fill="#00B1E0"/>
<path d="M23.9198 26.8785C32.3884 26.8785 39.6681 28.8756 42.7739 31.6819C43.8397 29.6554 44.3982 27.4007 44.4016 25.111C44.4016 15.7939 35.2345 7.44531 23.9198 7.44531C12.6051 7.44531 3.4375 15.7939 3.4375 25.111C3.43967 27.4008 3.99827 29.6558 5.06521 31.6819C8.17107 28.8662 15.4409 26.8785 23.9198 26.8785Z" fill="#00B3E1"/>
<path d="M23.9223 26.8983C32.3609 26.8983 39.6307 28.8959 42.7263 31.6524C43.7847 29.6485 44.3399 27.4173 44.3441 25.151C44.3441 15.9239 35.1967 7.625 23.9223 7.625C12.6474 7.625 3.5 15.9337 3.5 25.151C3.50439 27.4172 4.05961 29.6484 5.11786 31.6524C8.21343 28.8654 15.4636 26.8983 23.9223 26.8983Z" fill="#0DB5E2"/>
<path d="M23.9092 26.9259C32.3276 26.9259 39.5777 28.8635 42.6634 31.6201C43.721 29.6409 44.2766 27.4325 44.2817 25.1885C44.2817 16.0612 35.1639 7.8125 23.9092 7.8125C12.6549 7.8125 3.54688 16.0612 3.54688 25.1885C3.55175 27.4324 4.10729 29.6409 5.16473 31.6201C8.25045 28.8635 15.4804 26.9259 23.9092 26.9259Z" fill="#19B7E3"/>
<path d="M23.9137 26.9462C32.3124 26.9462 39.5326 28.8636 42.6183 31.6C43.673 29.6451 44.2287 27.46 44.2361 25.2388C44.2361 16.2508 35.1384 7.99219 23.9137 7.99219C12.6894 7.99219 3.60156 16.201 3.60156 25.2388C3.60773 27.4602 4.16353 29.6456 5.21942 31.6C8.29528 28.8636 15.5051 26.9462 23.9137 26.9462Z" fill="#21B9E4"/>
<path d="M23.9084 26.9679C32.2771 26.9679 39.487 28.875 42.5633 31.5716C43.6096 29.639 44.1618 27.4778 44.1708 25.2802C44.1708 16.2926 35.0933 8.18359 23.9084 8.18359C12.7235 8.18359 3.65625 16.3325 3.65625 25.2802C3.66069 27.4771 4.20963 29.6387 5.25396 31.5716C8.32982 28.8755 15.52 26.9679 23.9084 26.9679Z" fill="#28BBE5"/>
<path d="M23.9096 27.0177C32.2685 27.0177 39.4685 28.9154 42.5345 31.5919C43.5818 29.674 44.1343 27.5254 44.1421 25.3403C44.1421 16.4624 35.0846 8.36328 23.9096 8.36328C12.7351 8.36328 3.6875 16.4821 3.6875 25.3403C3.69058 27.5247 4.23981 29.6738 5.28521 31.5919C8.35079 28.9154 15.5409 27.0177 23.9096 27.0177Z" fill="#37BDE6"/>
<path d="M23.9134 27.0761C32.2619 27.0761 39.4525 28.9537 42.5082 31.6203C43.557 29.7139 44.1098 27.5745 44.1158 25.3987C44.1158 16.5804 35.0687 8.51172 23.9134 8.51172C12.7585 8.51172 3.71094 16.5804 3.71094 25.3987C3.72166 27.5727 4.27073 29.7102 5.30908 31.6203C8.37422 28.9533 15.5549 27.0761 23.9134 27.0761Z" fill="#43BFE6"/>
<path d="M23.9068 27.1675C32.2455 27.1675 39.4159 29.0352 42.4815 31.6812C43.5229 29.7905 44.0723 27.6683 44.0792 25.5098C44.0792 16.7417 35.0917 8.72266 23.9068 8.72266C12.7219 8.72266 3.73438 16.7117 3.73438 25.5098C3.74024 27.6685 4.28971 29.7909 5.33209 31.6812C8.38823 28.9949 15.5582 27.1675 23.9068 27.1675Z" fill="#4DC0E7"/>
<path d="M23.9081 27.1686C32.2369 27.1686 39.3971 29.026 42.4528 31.6523C43.4984 29.7772 44.0517 27.6677 44.0608 25.5208C44.0608 16.8126 35.0728 8.84375 23.9081 8.84375C12.7438 8.84375 3.76562 16.8328 3.76562 25.5208C3.773 27.6653 4.319 29.7737 5.35348 31.6523C8.4092 29.0363 15.5693 27.1686 23.9081 27.1686Z" fill="#56C2E8"/>
<path d="M23.9093 27.2382C32.2279 27.2382 39.3782 29.0759 42.4343 31.6824C43.4706 29.8221 44.0201 27.7301 44.032 25.6006C44.032 16.952 35.0444 9.02344 23.9093 9.02344C12.7746 9.02344 3.79688 16.952 3.79688 25.6006C3.79969 27.7299 4.34625 29.8231 5.38473 31.682C8.43059 29.0759 15.5804 27.2382 23.9093 27.2382Z" fill="#5EC4E8"/>
<path d="M23.9126 27.287C32.2115 27.287 39.3617 29.1144 42.4076 31.7107C43.4479 29.8629 43.9979 27.7797 44.0053 25.6593C44.0053 17.0707 35.0177 9.19141 23.9126 9.19141C12.8079 9.19141 3.82031 17.0707 3.82031 25.6593C3.82909 27.7783 4.37542 29.8604 5.40817 31.7107C8.46346 29.1641 15.594 27.287 23.9126 27.287Z" fill="#65C6E9"/>
<path d="M23.9135 27.3382C32.2021 27.3382 39.3425 29.1558 42.3883 31.7324C43.4173 29.9021 43.9637 27.8402 43.9762 25.7405C43.9762 17.212 34.9886 9.38281 23.9135 9.38281C12.8388 9.38281 3.89062 17.1824 3.89062 25.7204C3.90177 27.8204 4.4482 29.8827 5.47891 31.7122C8.48448 29.1657 15.6146 27.3382 23.9135 27.3382Z" fill="#6DC7EA"/>
<path d="M23.9135 27.3856C32.1922 27.3856 39.3228 29.1929 42.3583 31.7497C43.3954 29.9227 43.9424 27.8586 43.9462 25.7579C43.9462 17.2794 34.9586 9.5 23.9135 9.5C12.8688 9.5 3.89062 17.309 3.89062 25.7874C3.89105 27.8874 4.43491 29.9519 5.46863 31.7793C8.50463 29.1629 15.6249 27.3856 23.9135 27.3856Z" fill="#74C9EA"/>
<path d="M23.9094 27.4451C32.1783 27.4451 39.2986 29.2326 42.3346 31.7792C43.3607 29.9697 43.9073 27.9279 43.9224 25.8478C43.9224 17.4289 34.9344 9.69922 23.9497 9.69922C12.9646 9.69922 3.97656 17.4392 3.97656 25.8478C3.98238 27.9279 4.52597 29.9712 5.55456 31.7792C8.52028 29.2326 15.6307 27.4451 23.9094 27.4451Z" fill="#7ACBEB"/>
<path d="M23.9082 27.497C32.1667 27.497 39.2772 29.2747 42.3033 31.8011C43.3333 30.0111 43.8805 27.9841 43.8912 25.919C43.8912 17.5605 34.9032 9.87109 23.9185 9.87109C12.9333 9.87109 3.94531 17.5605 3.94531 25.919C3.95602 27.9828 4.49958 30.009 5.52331 31.8011C8.53917 29.2747 15.6393 27.497 23.9082 27.497Z" fill="#81CDEC"/>
<path d="M23.9069 27.5457C32.1556 27.5457 39.2562 29.3136 42.2819 31.8203C43.3046 30.0422 43.8483 28.0292 43.8599 25.978C43.8599 17.6796 34.9221 10 23.8872 10C12.8523 10 3.91406 17.6496 3.91406 25.978C3.9196 28.0299 4.46358 30.0445 5.49163 31.8203C8.55763 29.3131 15.6483 27.5457 23.9069 27.5457Z" fill="#87CFEC"/>
<path d="M23.9069 27.6052C32.1458 27.6052 39.2262 29.3529 42.2519 31.8395C43.2752 30.0763 43.8192 28.0761 43.8299 26.0375C43.8299 17.7986 34.9019 10.1992 23.9069 10.1992C12.9119 10.1992 3.98438 17.7986 3.98438 26.0375C3.99164 28.0752 4.53212 30.0755 5.55209 31.8395C8.5778 29.3529 15.6582 27.6052 23.9069 27.6052Z" fill="#8ED1ED"/>
<path d="M23.9082 27.6575C32.1368 27.6575 39.2073 29.395 42.2335 31.8717C43.2537 30.1218 43.7977 28.1351 43.8111 26.1095C43.8111 17.9208 34.8933 10.3711 23.9082 10.3711C12.9235 10.3711 4.01562 17.9311 4.01562 26.1095C4.02425 28.1344 4.56488 30.1215 5.58334 31.8717C8.5992 29.395 15.6796 27.6575 23.9082 27.6575Z" fill="#94D3EE"/>
<path d="M23.9087 27.7055C32.1278 27.7055 39.1881 29.4331 42.2039 31.8901C43.2428 30.16 43.8044 28.1856 43.8316 26.1678C43.8316 18.0386 34.9238 10.5391 23.9588 10.5391C12.9938 10.5391 4.08594 18.0489 4.08594 26.1678C4.09451 28.1801 4.63539 30.1544 5.65365 31.8901C8.61937 29.4331 15.6899 27.7055 23.9087 27.7055Z" fill="#9AD5EF"/>
<path d="M23.9132 27.7578C32.122 27.7578 39.1725 29.4755 42.1785 31.9119C43.198 30.1946 43.7424 28.2369 43.756 26.2398C43.756 18.1707 34.8683 10.7109 23.9132 10.7109C12.958 10.7109 4.07031 18.1707 4.07031 26.2398C4.07916 28.2363 4.62033 30.1943 5.63803 31.9119C8.64403 29.4755 15.7043 27.7578 23.9132 27.7578Z" fill="#A0D7F0"/>
<path d="M23.9066 27.8161C32.1052 27.8161 39.1462 29.5132 42.1517 31.9303C43.1644 30.2251 43.7056 28.2813 43.7199 26.2981C43.7199 18.3091 34.8416 10.8789 23.907 10.8789C12.9716 10.8789 4.09375 18.2889 4.09375 26.2981C4.09941 28.2811 4.63742 30.2262 5.65161 31.9303C8.65761 29.5132 15.708 27.8161 23.9066 27.8161Z" fill="#A6D9F0"/>
<path d="M23.9079 27.864C32.0966 27.864 39.1273 29.5517 42.123 31.9586C43.1431 30.267 43.6883 28.3316 43.701 26.3563C43.701 18.3669 34.833 11.0469 23.9079 11.0469C12.9827 11.0469 4.125 18.417 4.125 26.3563C4.13164 28.3298 4.66978 30.265 5.68286 31.9586C8.67857 29.5517 15.7191 27.864 23.9079 27.864Z" fill="#ACDCF1"/>
<path d="M23.9091 27.9163C32.0777 27.9163 39.1084 29.5938 42.1045 31.9805C43.1152 30.3037 43.6567 28.3861 43.6723 26.4283C43.6723 18.5289 34.8145 11.2188 23.9091 11.2188C13.0041 11.2188 4.15625 18.5387 4.15625 26.4283C4.16493 28.3844 4.69961 30.3021 5.70425 31.9805C8.70982 29.5938 15.7303 27.9163 23.9091 27.9163Z" fill="#B2DEF2"/>
<path d="M23.9128 27.9651C32.072 27.9651 39.0924 29.6331 42.0783 31.9594C43.0888 30.2971 43.6306 28.3923 43.646 26.4471C43.646 18.6179 34.7981 11.3477 23.9128 11.3477C13.028 11.3477 4.17969 18.6179 4.17969 26.4471C4.18563 28.3925 4.72457 30.2991 5.73797 31.9598C8.73369 29.6327 15.7537 27.9651 23.9128 27.9651Z" fill="#B8E0F3"/>
<path d="M23.9063 28.024C32.0551 28.024 39.0657 29.6718 42.052 32.0183C43.0563 30.3685 43.5945 28.4772 43.6094 26.5458C43.6094 18.7668 34.7817 11.5664 23.9063 11.5664C13.0313 11.5664 4.20312 18.7866 4.20312 26.5458C4.21164 28.4783 4.75051 30.3714 5.76098 32.0187C8.74727 29.6718 15.757 28.024 23.9063 28.024Z" fill="#BDE2F4"/>
<path d="M23.9075 28.0759C32.0465 28.0759 39.0468 29.7139 42.0232 32.0706C43.0284 30.4358 43.567 28.5571 43.5807 26.638C43.5807 18.9186 34.7628 11.7383 23.9075 11.7383C13.0527 11.7383 4.23438 18.9284 4.23438 26.638C4.24319 28.5564 4.77866 30.4356 5.78238 32.0706C8.76823 29.7139 15.7689 28.0759 23.9075 28.0759Z" fill="#C3E5F5"/>
<path d="M23.9088 28.1635C32.0379 28.1635 39.0185 29.7912 42.0043 32.1081C43.0049 30.486 43.5435 28.6215 43.5622 26.7158C43.5622 19.0559 34.7542 11.9258 23.9088 11.9258C13.0638 11.9258 4.26562 19.0658 4.26562 26.7158C4.27113 28.6207 4.80347 30.4869 5.80377 32.1081C8.78962 29.7514 15.7801 28.1635 23.9088 28.1635Z" fill="#C9E7F5"/>
<path d="M23.9121 28.1671C32.0309 28.1671 39.0016 29.7751 41.9776 32.0718C42.9774 30.4676 43.5163 28.6193 43.5355 26.7292C43.5355 19.1195 34.7373 12.0391 23.9121 12.0391C13.0868 12.0391 4.28906 19.1791 4.28906 26.7489C4.29813 28.6392 4.83406 30.4894 5.83663 32.0919C8.81263 29.7948 15.7932 28.1671 23.9121 28.1671Z" fill="#CEE9F6"/>
<path d="M23.9133 28.2346C32.0223 28.2346 38.9827 29.8327 41.9587 32.1196C42.9543 30.525 43.49 28.6863 43.5067 26.8066C43.5067 19.2667 34.7287 12.2266 23.9133 12.2266C13.0983 12.2266 4.32031 19.2667 4.32031 26.8066C4.32878 28.7028 4.87218 30.5582 5.88803 32.1594C8.88374 29.8323 15.8039 28.2346 23.9133 28.2346Z" fill="#D4ECF7"/>
<path d="M23.908 28.2869C32.0071 28.2869 38.9577 29.8747 41.8835 32.1414C42.8808 30.5661 43.417 28.743 43.4315 26.8786C43.4315 19.3889 34.6634 12.3984 23.8681 12.3984C13.0728 12.3984 4.30469 19.3889 4.30469 26.8786C4.32015 28.7534 4.86735 30.5854 5.88269 32.1616C8.8784 29.8747 15.8684 28.2869 23.908 28.2869Z" fill="#DAEEF8"/>
<path d="M23.9105 28.3344C31.9998 28.3344 38.9405 29.9124 41.886 32.1594C42.8835 30.5983 43.4232 28.7888 43.4439 26.9364C43.4439 19.5067 34.6758 12.5664 23.9006 12.5664C13.1255 12.5664 4.36719 19.5564 4.36719 26.9364C4.37437 28.7852 4.90031 30.5948 5.88519 32.1594C8.8809 29.9124 15.8709 28.3344 23.9105 28.3344Z" fill="#DFF1F9"/>
<path d="M23.9097 28.397C31.9887 28.397 38.8895 29.9549 41.8853 32.1817C42.8803 30.635 43.417 28.8381 43.4333 26.999C43.4333 19.6289 34.6853 12.7383 23.92 12.7383C13.1542 12.7383 4.40625 19.6391 4.40625 26.999C4.41399 28.8379 4.94771 30.6363 5.94439 32.1817C8.88011 29.9549 15.8705 28.3974 23.9101 28.3974L23.9097 28.397Z" fill="#E5F3FA"/>
<path d="M23.9117 28.4454C31.9809 28.4454 38.8916 29.993 41.8873 32.21C42.8793 30.6766 43.4161 28.8933 43.4353 27.0671C43.4353 19.757 34.6972 12.9062 23.9516 12.9062C13.2065 12.9062 4.46875 19.757 4.46875 27.0671C4.48083 28.8914 5.0105 30.6748 5.99618 32.21C8.88218 29.993 15.873 28.4454 23.9117 28.4454Z" fill="#EBF6FB"/>
<path d="M23.906 28.4973C31.9653 28.4973 38.8858 30.035 41.8216 32.2318C42.8067 30.7106 43.3401 28.9411 43.3597 27.1288C43.3597 19.8787 34.6413 13.0781 23.906 13.0781C13.1707 13.0781 4.45312 19.8787 4.45312 27.1687C4.46406 28.9808 4.99429 30.7518 5.98098 32.2717C8.92698 30.0346 15.8677 28.4968 23.9064 28.4968L23.906 28.4973Z" fill="#F1F8FD"/>
<path d="M23.9077 28.5466C31.9567 28.5466 38.8875 30.0745 41.7932 32.2516C42.7866 30.7417 43.3209 28.9762 43.3314 27.1688C43.3314 19.9684 34.6228 13.1875 23.9077 13.1875C13.1925 13.1875 4.48438 19.9482 4.48438 27.1684C4.49353 28.9636 5.02062 30.7181 6.00237 32.2212C8.95823 30.0741 15.8681 28.5466 23.9077 28.5466Z" fill="#F7FBFE"/>
<path d="M23.9114 28.6043C31.9008 28.6043 38.8312 30.1125 41.7772 32.2793C42.7545 30.7953 43.2879 29.0632 43.315 27.2865C43.315 20.1465 34.6167 13.4453 23.9114 13.4453C13.2061 13.4453 4.50781 20.1559 4.50781 27.2865C4.52648 29.0631 5.05711 30.7966 6.0361 32.2793C8.98167 30.1622 15.8718 28.6043 23.9114 28.6043Z" fill="white"/>
</g>
<path d="M23.4437 24.0042C16.2769 23.939 9.24976 24.6158 2.5 27C2.57216 27.1603 2.48137 27.1543 2.49328 27.5C2.51509 28.1325 2.87258 29.2144 3 29.5C3.1595 29.8575 3.34041 31.1517 3.5 31.5C4.88871 34.531 5.93984 35.0949 8.90509 37C12.6321 39.3945 18.9611 44.5 23.4051 44.5C27.8491 44.5 30.678 43.3945 34.4051 41C37.0158 39.3227 41.5736 35.5949 44.0004 32C43.9512 32.0756 44.0514 31.9245 44.0004 32C44.0004 32 44.2993 31.3281 44.5004 31C44.7219 30.6387 44.5004 30 44.7348 29.5C44.7348 29 44.8697 28.0889 45.1348 27.5C38.4103 25.1215 30.5848 23.9448 23.4437 24.0042Z" fill="#0083CA"/>
</svg>
