<svg width="112" height="112" fill="none" xmlns="http://www.w3.org/2000/svg"><g clip-path="url('#clip0_202_183')"><path d="M71.881 64.617a17.665 17.665 0 0 0-1.213-4.066 20.122 20.122 0 0 0-8.065-9.312 18.308 18.308 0 0 0-18.741.13 16.217 16.217 0 0 0-6.142 6.559 19.544 19.544 0 0 0-1.186 2.886 20.109 20.109 0 0 0 1.292 15.739 7.896 7.896 0 0 0 3.769 3.28 5.454 5.454 0 0 0 4.903-.368 5.247 5.247 0 0 0 1.727-2.458c.323-.97.355-2.011.091-2.999a14.596 14.596 0 0 1 .185-7.607c.291-.81.76-1.544 1.37-2.15.38-.365.816-.666 1.292-.893a5.48 5.48 0 0 1 3.216-.524 6.18 6.18 0 0 1 2.603 1.249 6.142 6.142 0 0 1 1.746 2.292 14.576 14.576 0 0 1 1.133 5.509 85.291 85.291 0 0 1-3.769 25.209c-.237.84-.474 1.653-.685 2.492-.211.84-.527 1.443 0 2.072.184.261.44.461.738.578 1.265.498 2.267-.263 3.11-1.102A44.937 44.937 0 0 0 69.561 83.19a57.184 57.184 0 0 0 1.977-7.503c.753-3.668.887-7.436.396-11.148M107.307 25.74a2.113 2.113 0 0 0-.718-1.518 2.14 2.14 0 0 0-1.602-.527c-1.214.167-2.391.54-3.479 1.102a141.577 141.577 0 0 1-69.35 6.505c-3.927-.577-7.907-1.338-11.86-1.967-2.478-.394-4.93-.945-7.407-1.128a8.971 8.971 0 0 0-6.485 1.233 6.794 6.794 0 0 0-.817 8.08 18.2 18.2 0 0 0 7.038 6.793 17.319 17.319 0 0 0 9.252 3.148 395.403 395.403 0 0 0 26.358-2.623c14.893-1.915 30.47-3.725 44.467-9.47a55.665 55.665 0 0 0 12.969-7.266c.711-.525 1.739-1.417 1.739-2.44" fill="#008375"/><path d="M44.837 18.317c0 2.261.903 4.43 2.51 6.029a8.587 8.587 0 0 0 6.057 2.497c2.272 0 4.45-.898 6.057-2.497a8.504 8.504 0 0 0 2.51-6.029 4.94 4.94 0 0 0-.449-2.046c-.738-1.548-1.581-2.308-1.476-4.17 0-2.493-3.137-2.624-4.876-2.624a12.519 12.519 0 0 0-5.615 1.128 8.604 8.604 0 0 0-3.347 3.017 8.262 8.262 0 0 0-1.37 4.407v.21" fill="#D50037"/></g><defs><clipPath id="clip0_202_183"><path fill="#fff" transform="translate(4.667 9.556)" d="M0 0h102.667v92.889H0z"/></clipPath></defs></svg>