<svg width="48" height="48" viewBox="0 0 48 48" fill="none" xmlns="http://www.w3.org/2000/svg">
<mask id="mask0_117_3324" style="mask-type:luminance" maskUnits="userSpaceOnUse" x="2" y="4" width="44" height="40">
<path d="M2 4.09375H46.0001V43.9033H2V4.09375Z" fill="white"/>
</mask>
<g mask="url(#mask0_117_3324)">
<path d="M30.8093 27.6938C30.7066 27.0942 30.5321 26.5091 30.2894 25.9513C29.5828 24.2923 28.374 22.8966 26.833 21.9604C25.6134 21.2452 24.2232 20.8728 22.8094 20.8826C21.3956 20.8924 20.0107 21.284 18.8011 22.0161C17.6765 22.6865 16.764 23.6609 16.1689 24.8271C15.9667 25.2252 15.7968 25.6388 15.6606 26.064C15.2929 27.1675 15.1524 28.334 15.2476 29.4932C15.3427 30.6525 15.6716 31.7805 16.2143 32.8093C16.5864 33.4403 17.1532 33.9336 17.8296 34.215C18.1677 34.355 18.534 34.4137 18.899 34.3863C19.264 34.3589 19.6174 34.2462 19.9309 34.0573C20.275 33.7858 20.5322 33.4196 20.671 33.0038C20.8094 32.5881 20.8231 32.142 20.71 31.7185C20.4477 30.6439 20.4751 29.519 20.7893 28.4584C20.914 28.1113 21.115 27.7967 21.3764 27.537C21.5393 27.3805 21.7261 27.2515 21.9301 27.1543C22.3562 26.9414 22.8369 26.8631 23.3084 26.9297C23.7173 27.0175 24.0996 27.201 24.424 27.465C24.7478 27.7284 25.0043 28.0651 25.1723 28.4473C25.4859 29.1953 25.6508 29.9972 25.6579 30.8083C25.6636 34.4701 25.1191 38.1121 24.0426 41.6121C23.941 41.9721 23.8394 42.3205 23.749 42.6801C23.6586 43.0401 23.5231 43.2985 23.749 43.5681C23.8279 43.68 23.9376 43.7657 24.0653 43.8158C24.6074 44.0293 25.0369 43.7031 25.3981 43.3435C27.4486 41.1587 28.961 38.5257 29.815 35.6537C30.1699 34.6022 30.453 33.5279 30.6623 32.4381C30.985 30.8661 31.0424 29.2513 30.832 27.6604M45.9919 11.0323C45.9878 10.9085 45.9583 10.787 45.9054 10.6751C45.8525 10.5632 45.7772 10.4633 45.6841 10.3817C45.591 10.2995 45.4821 10.2371 45.364 10.1983C45.246 10.1594 45.1213 10.145 44.9976 10.1558C44.4773 10.2274 43.9729 10.3873 43.5066 10.6281C33.9862 14.018 23.7699 14.9763 13.7851 13.416C12.1021 13.1687 10.3964 12.8425 8.70229 12.573C7.64029 12.4041 6.58943 12.168 5.52786 12.0895C4.56794 11.906 3.57417 12.095 2.74857 12.618C2.32508 13.0805 2.06224 13.6674 1.99915 14.2913C1.93606 14.9153 2.0761 15.5429 2.39843 16.0808C3.11936 17.3083 4.16246 18.3151 5.41471 18.9921C6.57951 19.8131 7.95603 20.2815 9.37986 20.3413C13.1568 20.0928 16.9243 19.7179 20.6761 19.2171C27.0589 18.3964 33.7347 17.6207 39.7334 15.1585C41.717 14.3737 43.5864 13.3264 45.2916 12.0445C45.5963 11.8195 46.0369 11.4373 46.0369 10.9988" fill="#8E8E8E"/>
<path d="M19.2188 7.85C19.2188 8.819 19.6057 9.74858 20.2945 10.4339C20.9843 11.1196 21.9176 11.5044 22.8903 11.504C23.864 11.504 24.7975 11.1191 25.4862 10.4339C25.8269 10.0953 26.0973 9.69274 26.282 9.24931C26.4666 8.80588 26.5617 8.33033 26.5619 7.85C26.5612 7.54732 26.4955 7.24832 26.3695 6.97315C26.0532 6.30972 25.6919 5.984 25.7369 5.186C25.7369 4.11758 24.3925 4.06143 23.6472 4.06143C22.8185 4.03446 21.9948 4.19994 21.2407 4.54486C20.6562 4.84078 20.1611 5.28708 19.8063 5.83786C19.4352 6.39888 19.2315 7.05401 19.2192 7.72658V7.81658" fill="#DEDEDE"/>
</g>
</svg>
