<svg width="112" height="112" fill="none" xmlns="http://www.w3.org/2000/svg"><g clip-path="url('#clip0_202_111')"><path d="M53.71 5.405a50.644 50.644 0 1 0 52.885 48.256A50.615 50.615 0 0 0 53.71 5.356v.05Z" fill="url('#paint0_radial_202_111')"/><path d="M53.685 4.717a51.333 51.333 0 1 0 53.599 48.945 51.36 51.36 0 0 0-53.599-48.97v.025Zm6.008 49.807a2542.24 2542.24 0 0 0 14.132 12.95c16.077 13.394 10.587 25.63 4.431 29.89a30.62 30.62 0 0 1-16.692 5.145 1.548 1.548 0 0 1-1.773-1.354c0-1.157 1.65-1.453 1.65-1.453 15.19-2.979 10.734-12.95 5.367-18.022-2.24-2.142-23.39-20.385-23.39-20.385C23.28 44.06 24.88 30.396 24.88 30.396c.96-16.668 15.56-20.804 26.614-19.844 1.28.123 1.995.911 1.773 1.97-.222 1.059-1.945 1.28-1.945 1.28a18.071 18.071 0 0 0-9.06 2.167c-8.888 5.982-6.254 16.175 5.613 27.5 1.477 1.429 3.078 2.93 4.703 4.457 0 0 2.388 2.093 7.115 6.598ZM52.799 97.61c0 1.65-3.865 2.339-8.37 1.895a32.228 32.228 0 0 1-18.343-7.386 35.429 35.429 0 0 1-10.414-16.79c-1.674-5.811-2.462-12.582.394-12.065.837.173 2.314 3.915 3.89 6.623a17.235 17.235 0 0 0 4.259 5.294c.566.418 2.462-3.89 5.318-6.328 1.625-1.354 3.422-1.822 3.718 2.216.344 4.924-.542 10.833.886 10.833s4.407-1.034 11.08-1.6c2.461-.197 3.938.27 1.55 3.643a25.336 25.336 0 0 1-6.573 6.796c5.687 5.268 12.482 4.628 12.605 6.869Zm4.481-51.703a17.824 17.824 0 0 1-.197-6.426 43.946 43.946 0 0 1 3.94-12.58c2.461-5.836-3.3-9.258-2.463-11.4 1.28-2.905 5.318.788 9.848 1.059 3.866.221 6.205 0 9.209.418 3.988.542 8.764 1.871 10.882 4.383 2.117 2.51-1.01 5.071-4.604 3.323-2.61-1.28-5.91-.492-3.989 2.24a8.962 8.962 0 0 0 5.835 3.3c6.525 1.723 6.672 7.977 2.24 11.227-5.047 3.668-10.118 2.166-12.162-5.072-1.034-3.62-3.594-5.441-6.204-4.432-2.61 1.01-1.059 5.786.935 10.168 3.94 10.095-5.884 9.849-7.016 9.627a8.198 8.198 0 0 1-6.254-5.86v.025Z" fill="url('#paint1_radial_202_111')"/></g><defs><radialGradient id="paint0_radial_202_111" cx="0" cy="0" r="1" gradientUnits="userSpaceOnUse" gradientTransform="translate(63.907 39.42) scale(48.1177)"><stop stop-color="#fff"/><stop offset="1" stop-color="#CF9C51"/></radialGradient><radialGradient id="paint1_radial_202_111" cx="0" cy="0" r="1" gradientUnits="userSpaceOnUse" gradientTransform="translate(51.995 24.771) scale(107.784)"><stop stop-color="#00C0F3"/><stop offset=".22" stop-color="#0097D6"/><stop offset=".28" stop-color="#0086CA"/><stop offset=".37" stop-color="#0074BD"/><stop offset=".46" stop-color="#0069B5"/><stop offset=".57" stop-color="#0066B3"/></radialGradient><clipPath id="clip0_202_111"><path fill="#fff" transform="translate(4.667 4.667)" d="M0 0h102.667v102.667H0z"/></clipPath></defs></svg>