<svg width="48" height="48" viewBox="0 0 48 48" fill="none" xmlns="http://www.w3.org/2000/svg">
<mask id="mask0_117_3239" style="mask-type:luminance" maskUnits="userSpaceOnUse" x="2" y="2" width="44" height="44">
<path d="M2 2H46.0001V46.0001H2V2Z" fill="white"/>
</mask>
<g mask="url(#mask0_117_3239)">
<path d="M23.0179 2.31724C18.7288 2.5118 14.5938 3.97408 11.1359 6.51909C7.67797 9.06411 5.05256 12.5775 3.59176 16.6149C2.13096 20.6522 1.9004 25.0322 2.92925 29.2006C3.9581 33.369 6.20013 37.1386 9.37173 40.0326C12.5433 42.9266 16.502 44.8149 20.747 45.4587C24.9919 46.1025 29.3325 45.4728 33.2195 43.6493C37.1066 41.8259 40.3655 38.8905 42.584 35.2146C44.8025 31.5387 45.881 27.2873 45.6829 22.9984C45.5558 20.1503 44.8685 17.3552 43.6603 14.7729C42.4522 12.1906 40.7468 9.87178 38.6418 7.94907C36.5368 6.02636 34.0734 4.53745 31.3925 3.56749C28.7117 2.59753 25.8659 2.16555 23.0179 2.29624V2.31724Z" fill="#DEDEDE"/>
<path d="M23.0059 2.02095C18.6589 2.21755 14.4678 3.69885 10.9627 6.27753C7.45766 8.8562 4.79601 12.4164 3.31444 16.5079C1.83286 20.5994 1.59791 25.0383 2.63929 29.2633C3.68068 33.4883 5.95162 37.3096 9.16491 40.2439C12.3782 43.1782 16.3895 45.0936 20.6915 45.748C24.9934 46.4024 29.3929 45.7663 33.3333 43.9202C37.2737 42.0741 40.5782 39.1009 42.8288 35.3766C45.0793 31.6524 46.1749 27.3443 45.9769 22.9974C45.7113 17.1691 43.1425 11.6847 38.8352 7.74941C34.5279 3.8141 28.8345 1.74984 23.0059 2.01024V2.02095ZM25.5808 23.3668C27.5927 25.2244 29.6115 27.0744 31.6374 28.9168C38.5275 34.6571 36.1746 39.9011 33.5364 41.7268C31.4165 43.1408 28.9307 43.907 26.3826 43.9318C26.2944 43.9454 26.2044 43.941 26.1179 43.9189C26.0314 43.8968 25.9502 43.8575 25.8793 43.8033C25.8083 43.7491 25.749 43.6812 25.705 43.6036C25.6609 43.5259 25.6329 43.4402 25.6228 43.3515C25.6228 42.8557 26.3299 42.7288 26.3299 42.7288C32.8399 41.4521 30.9302 37.1788 28.6301 35.0051C27.6701 34.0871 18.6058 26.2687 18.6058 26.2687C9.97522 18.8822 10.6609 13.0262 10.6609 13.0262C11.0724 5.88281 17.3295 4.11024 22.0669 4.52167C22.6155 4.57438 22.9219 4.91209 22.8268 5.36595C22.7316 5.81981 21.9932 5.91452 21.9932 5.91452C20.64 5.87944 19.3012 6.19965 18.1104 6.84324C14.3012 9.40695 15.4301 13.7754 20.5159 18.629C21.1489 19.2414 21.8351 19.8847 22.5315 20.5391C22.5315 20.5391 23.5549 21.4361 25.5808 23.3668ZM22.6262 41.8322C22.6262 42.5394 20.9698 42.8347 19.0391 42.6444C16.1517 42.4391 13.4018 41.3318 11.1778 39.479C9.03785 37.5521 7.48994 35.0565 6.71465 32.2832C5.99722 29.7928 5.65951 26.891 6.88351 27.1125C7.24222 27.1867 7.87522 28.7904 8.55065 29.951C9.0025 30.8209 9.62298 31.5921 10.3759 32.2198C10.6185 32.3989 11.4311 30.5527 12.6551 29.5078C13.3515 28.9275 14.1216 28.7269 14.2485 30.4575C14.3959 32.5678 14.0162 35.1002 14.6282 35.1002C15.2402 35.1002 16.5169 34.6571 19.3768 34.4145C20.4315 34.3301 21.0645 34.5302 20.0411 35.9758C19.2931 37.1148 18.3375 38.1029 17.2241 38.8884C19.6614 41.1461 22.5735 40.8718 22.6262 41.8322ZM24.5466 19.6738C24.3518 18.7685 24.3232 17.8353 24.4622 16.9198C24.7508 15.048 25.3201 13.2304 26.1508 11.5284C27.2055 9.02724 24.7365 7.56067 25.0952 6.64267C25.6438 5.39767 27.3744 6.98038 29.3158 7.09652C30.9726 7.19124 31.9751 7.09652 33.2625 7.27567C34.9716 7.50795 37.0185 8.07752 37.9262 9.15409C38.8335 10.2298 37.4934 11.3274 35.9531 10.5782C34.8345 10.0297 33.4202 10.3674 34.2435 11.5382C34.8627 12.3154 35.7591 12.8223 36.7442 12.9525C39.5406 13.691 39.6037 16.3712 37.7042 17.7641C35.5412 19.3361 33.3679 18.6924 32.4919 15.5904C32.0488 14.039 30.9517 13.2585 29.8331 13.691C28.7145 14.1238 29.3792 16.1707 30.2338 18.0487C31.9224 22.3751 27.7121 22.2697 27.2269 22.1745C26.592 22.0439 26.0055 21.7402 25.5325 21.2969C25.0594 20.8537 24.7182 20.2882 24.5466 19.6631V19.6738Z" fill="#8E8E8E"/>
</g>
</svg>
