<svg width="112" height="112" fill="none" xmlns="http://www.w3.org/2000/svg"><g clip-path="url('#clip0_202_425')"><path d="M102.667 89.284a13.315 13.315 0 0 1-3.907 9.42 13.318 13.318 0 0 1-9.423 3.898H22.665A13.33 13.33 0 0 1 9.333 89.283V22.71A13.324 13.324 0 0 1 22.665 9.397h66.672a13.321 13.321 0 0 1 13.33 13.313v66.574Z" fill="#FFE400"/><path d="M76.018 65.322a13.057 13.057 0 0 0-4.55-8.328c-.371-.327-.774-.631-1.22-.993.372-.278.68-.492.967-.731a13.782 13.782 0 0 0 4.051-5.606 12.77 12.77 0 0 0 .743-6.496 12.922 12.922 0 0 0-3.372-7.122 13.202 13.202 0 0 0-4.738-3.363 14.356 14.356 0 0 0-5.534-1.048H41.121a3.843 3.843 0 0 0-.44 0 .89.89 0 0 0-.85.913v46.344c0 .23-.013.462 0 .692a.816.816 0 0 0 .705.768c.146.018.293.023.44.017h22.002a12.46 12.46 0 0 0 6.31-1.687 13.446 13.446 0 0 0 5.971-6.918 12.618 12.618 0 0 0 .759-6.442ZM59.11 66.974h-3.97V45.076h3.926s-.015-.011 0-.011v.011h.044v21.898Z" fill="#1E1719"/></g><defs><clipPath id="clip0_202_425"><path fill="#fff" transform="translate(9.333 9.397)" d="M0 0h93.333v93.205H0z"/></clipPath></defs></svg>