<svg width="48" height="48" viewBox="0 0 48 48" fill="none" xmlns="http://www.w3.org/2000/svg">
<mask id="mask0_117_3340" style="mask-type:luminance" maskUnits="userSpaceOnUse" x="4" y="4" width="40" height="40">
<path d="M4 4.02734H43.9999V43.9723H4V4.02734Z" fill="white"/>
</mask>
<g mask="url(#mask0_117_3340)">
<path d="M44.0003 38.2646C44.0002 39.0146 43.8522 39.7571 43.5649 40.4499C43.2776 41.1426 42.8565 41.7719 42.3259 42.3018C41.7955 42.8319 41.1658 43.2522 40.4729 43.5389C39.7799 43.8255 39.0373 43.9728 38.2874 43.9723H9.71371C8.19924 43.9726 6.74664 43.3714 5.67523 42.3011C4.60381 41.2307 4.00125 39.7787 4 38.2642V9.73292C4.00125 8.21868 4.60389 6.76694 5.67538 5.69697C6.74687 4.627 8.19948 4.02644 9.71371 4.02735H38.2874C39.0372 4.02684 39.7797 4.17402 40.4726 4.46048C41.1654 4.74694 41.7951 5.16708 42.3256 5.6969C42.8561 6.22671 43.277 6.85583 43.5644 7.54834C43.8517 8.24084 43.9998 8.98316 44.0003 9.73292V38.2646Z" fill="#8E8E8E"/>
<path d="M32.5815 27.9947C32.4022 26.6025 31.7061 25.3286 30.6315 24.4255C30.4725 24.2854 30.2998 24.1551 30.1086 24C30.2681 23.8808 30.4001 23.7891 30.5231 23.6867C31.2966 23.0464 31.8941 22.2195 32.2592 21.2841C32.6052 20.3995 32.7149 19.44 32.5776 18.5001C32.4255 17.357 31.9203 16.29 31.1325 15.4478C30.5711 14.8226 29.8774 14.3302 29.1019 14.0065C28.3488 13.7017 27.5427 13.549 26.7302 13.5574H17.6256C17.5628 13.5538 17.4999 13.5538 17.4371 13.5574C17.3372 13.5618 17.243 13.6053 17.1749 13.6785C17.1068 13.7517 17.0701 13.8487 17.0728 13.9487V33.8104C17.0728 33.909 17.0672 34.0084 17.0728 34.107C17.0768 34.1885 17.1093 34.266 17.1644 34.3261C17.2196 34.3862 17.2941 34.4251 17.3749 34.4361C17.4375 34.4438 17.5005 34.446 17.5635 34.4434H26.9929C27.9426 34.4471 28.8761 34.1976 29.6972 33.7204C30.8702 33.0612 31.7755 32.0123 32.2562 30.7555C32.6034 29.8793 32.7155 28.9276 32.5815 27.9947ZM25.3352 28.7027H23.6338V19.3178H25.3164C25.3164 19.3178 25.3099 19.3131 25.3164 19.3131V19.3178H25.3352V28.7027Z" fill="#DEDEDE"/>
</g>
</svg>
